<?xml version="1.0" encoding="utf-8"?>
<!-- Generator: Adobe Illustrator 19.2.1, SVG Export Plug-In . SVG Version: 6.00 Build 0)  -->
<svg version="1.1" id="Layer_1" xmlns="http://www.w3.org/2000/svg" xmlns:xlink="http://www.w3.org/1999/xlink" x="0px" y="0px"
	 viewBox="0 0 23 15" style="enable-background:new 0 0 23 15;" xml:space="preserve">
<style type="text/css">
	.st0{fill:#C8CED2;}
</style>
<path id="mail.svg" class="st0" d="M0.8,1.4l9.6,5.2c0.7,0.3,1.6,0.3,2.3,0l9.6-5.2c0.6-0.3,1.2-1.4,0-1.4H0.7
	C-0.5,0,0.1,1.1,0.8,1.4z M22.4,4l-9.8,5.2c-0.7,0.3-1.6,0.3-2.3,0L0.5,4C0,3.7,0,4,0,4.3v9.5C0.1,14.4,0.6,15,1.3,15h20.4
	c0.6-0.1,1.2-0.6,1.3-1.2V4.3C22.9,4,22.9,3.7,22.4,4L22.4,4z"/>
</svg>
