<svg id="картинки_" data-name="картинки " xmlns="http://www.w3.org/2000/svg" xmlns:xlink="http://www.w3.org/1999/xlink" width="1232" height="56" viewBox="0 0 1232 56">
  <metadata><?xpacket begin="﻿" id="W5M0MpCehiHzreSzNTczkc9d"?>
<x:xmpmeta xmlns:x="adobe:ns:meta/" x:xmptk="Adobe XMP Core 5.6-c138 79.159824, 2016/09/14-01:09:01        ">
   <rdf:RDF xmlns:rdf="http://www.w3.org/1999/02/22-rdf-syntax-ns#">
      <rdf:Description rdf:about=""/>
   </rdf:RDF>
</x:xmpmeta>
                                                                                                    
                                                                                                    
                                                                                                    
                                                                                                    
                                                                                                    
                                                                                                    
                                                                                                    
                                                                                                    
                                                                                                    
                                                                                                    
                                                                                                    
                                                                                                    
                                                                                                    
                                                                                                    
                                                                                                    
                                                                                                    
                                                                                                    
                                                                                                    
                                                                                                    
                                                                                                    
                           
<?xpacket end="w"?></metadata>
<defs>
    <style>
      .cls-1 {
        fill: #fbb22a;
      }

      .cls-1, .cls-10, .cls-11, .cls-12, .cls-13, .cls-14, .cls-15, .cls-2, .cls-3, .cls-4, .cls-5, .cls-7, .cls-9 {
        fill-rule: evenodd;
      }

      .cls-2 {
        fill: #34c783;
      }

      .cls-3 {
        fill: #3ab1f6;
      }

      .cls-4 {
        fill: #fcb119;
      }

      .cls-5 {
        fill: #fff;
      }

      .cls-6 {
        fill: #f36922;
      }

      .cls-7 {
        fill: none;
        stroke: #0b4db4;
        stroke-width: 2px;
      }

      .cls-8 {
        fill: #384bbd;
      }

      .cls-9 {
        fill: url(#linear-gradient);
      }

      .cls-10 {
        fill: #c9c9c9;
      }

      .cls-11 {
        fill: url(#linear-gradient-2);
      }

      .cls-12 {
        fill: url(#linear-gradient-3);
      }

      .cls-13 {
        fill: #4a5e69;
      }

      .cls-14 {
        fill: #f993d3;
      }

      .cls-15 {
        fill: #a0cf17;
      }
    </style>
    <linearGradient id="linear-gradient" x1="468.051" y1="44" x2="485.949" y2="13" gradientUnits="userSpaceOnUse">
      <stop offset="0" stop-color="#ef8210"/>
      <stop offset="0.178" stop-color="#f29218"/>
      <stop offset="0.485" stop-color="#f6ab2b"/>
      <stop offset="0.765" stop-color="#fec255"/>
      <stop offset="1" stop-color="#ffd379"/>
    </linearGradient>
    <linearGradient id="linear-gradient-2" x1="356.051" x2="373.949" xlink:href="#linear-gradient"/>
    <linearGradient id="linear-gradient-3" x1="280" y1="56" x2="336" gradientUnits="userSpaceOnUse">
      <stop offset="0" stop-color="#ed801c"/>
      <stop offset="1" stop-color="#f6a821"/>
    </linearGradient>
  </defs>
  <path id="sign-in" class="cls-1" d="M40.45,18.918L34,23V36l5-3a1.335,1.335,0,0,1,1.857.753,1.055,1.055,0,0,1-.392,1.4l-6.684,3.7a1.109,1.109,0,0,1-1.071,0A1.185,1.185,0,0,1,32,38V35H29a1.209,1.209,0,0,1-.707-0.4,0.908,0.908,0,0,1-.282-0.654L28,30a1,1,0,0,1,2,0v3h2V22a1.89,1.89,0,0,1,1-1l4-2H30v3a1,1,0,1,1-2,0l0.016-4.074A0.945,0.945,0,0,1,28.98,17H39.859a1.082,1.082,0,0,1,.985.513A1.006,1.006,0,0,1,40.45,18.918ZM26.943,26.065c0,0.008,0,.016,0,0.023s0,0.015,0,.022,0,0.019,0,.029l0,0.016c0,0.01,0,.02-0.005.03l0,0.014c0,0.01,0,.02-0.007.031l0,0.014-0.008.029,0,0.015-0.009.027-0.006.017-0.009.024-0.008.019-0.009.021-0.01.021-0.009.018-0.012.023-0.009.015-0.014.024L26.8,26.51l-0.015.024-0.01.014-0.016.023-0.012.015-0.016.02-0.017.02-0.012.014-0.032.034-3.117,3.105a0.927,0.927,0,0,1-1.314-1.309l1.532-1.526H16.929a0.925,0.925,0,1,1,0-1.85h6.844l-1.532-1.526a0.927,0.927,0,0,1,1.314-1.308l3.117,3.1L26.7,25.4l0.012,0.014,0.017,0.02,0.016,0.02,0.012,0.015,0.016,0.023,0.01,0.014L26.8,25.529l0.009,0.014,0.014,0.024,0.009,0.016,0.012,0.023,0.009,0.018,0.01,0.021,0.009,0.021,0.008,0.019,0.009,0.024L26.9,25.726,26.9,25.753l0,0.014L26.917,25.8l0,0.014c0,0.01,0,.02.007,0.031l0,0.014c0,0.01,0,.02.005,0.03l0,0.016c0,0.009,0,.019,0,0.029s0,0.014,0,.021,0,0.016,0,.023,0,0.026,0,.04,0,0,0,.006,0,0,0,.006S26.944,26.052,26.943,26.065Z"/>
  <path id="cart" class="cls-1" d="M1047.16,29.288l-1.73,6.953A3.62,3.62,0,0,1,1041.91,39h-9.82a3.62,3.62,0,0,1-3.52-2.758l-1.73-6.953c-1.08-.433-1.84-0.871-1.84-3.289a3.059,3.059,0,0,1,3-3h3l2.14-5.334a1.055,1.055,0,1,1,1.96.779L1034,23h6l-1.1-4.555a1.056,1.056,0,0,1,.6-1.369,1.043,1.043,0,0,1,1.36.591L1043,23h3a3.059,3.059,0,0,1,3,3C1049,28.011,1048.24,28.856,1047.16,29.288Zm-16.55,6.445a1.525,1.525,0,0,0,1.48,1.157h9.82a1.525,1.525,0,0,0,1.48-1.157L1045,30h-16ZM1045.5,25h-17a1.5,1.5,0,0,0,0,3h17A1.5,1.5,0,0,0,1045.5,25Z"/>
  <path id="view-all" class="cls-1" d="M987,37h-7c-3.682,0-4-3-4-3a2.7,2.7,0,0,1-3.009-2.869L973,23a3.09,3.09,0,0,1,3-3h6a1,1,0,1,1,0,2h-6a0.988,0.988,0,0,0-1,1v8a0.988,0.988,0,0,0,1,1h8a0.988,0.988,0,0,0,1-1V25a1,1,0,0,1,2,0l0,6.131a2.887,2.887,0,0,1-2.882,2.884h-6.148A0.955,0.955,0,0,0,979,35h8a0.978,0.978,0,0,0,1-1V28a1,1,0,0,1,2,0v6A3.057,3.057,0,0,1,987,37Zm-3.891-7.014h-6.188a0.989,0.989,0,0,1,0-1.972h6.188A0.989,0.989,0,0,1,983.109,29.986Zm0-3h-6.188a1.008,1.008,0,0,1,0-2h6.188A1.008,1.008,0,0,1,983.109,26.99Z"/>
  <path id="enrolled" class="cls-2" d="M1104.23,35.672a3.77,3.77,0,0,1-1.29.776,9.9,9.9,0,0,1-3.39.534,17.251,17.251,0,0,1-1.74-.143,0.237,0.237,0,0,1-.18-0.346,8.215,8.215,0,0,0,.39-1.017,0.228,0.228,0,0,1,.25-0.169,10.563,10.563,0,0,0,1.28.078,8.49,8.49,0,0,0,2.85-.436,1.262,1.262,0,0,0,.91-0.705,3.83,3.83,0,0,0-3.76-3.884,3.62,3.62,0,0,0-2.01.617,0.231,0.231,0,0,1-.34-0.087,8.243,8.243,0,0,0-.55-0.909,0.249,0.249,0,0,1,.06-0.353,5.149,5.149,0,0,1,6.59.742,5.51,5.51,0,0,1,1.56,3.876A1.985,1.985,0,0,1,1104.23,35.672Zm-4.68-7.577a3.427,3.427,0,1,1,3.32-3.425A3.378,3.378,0,0,1,1099.55,28.094Zm0-5.244a1.82,1.82,0,1,0,1.76,1.819A1.792,1.792,0,0,0,1099.55,22.851Zm-3.67,13.568a4.422,4.422,0,0,1-1.56.936,13.256,13.256,0,0,1-8.17,0,4.515,4.515,0,0,1-1.56-.936,2.376,2.376,0,0,1-.76-1.725,6.688,6.688,0,0,1,1.88-4.679,6.262,6.262,0,0,1,9.06,0,6.688,6.688,0,0,1,1.88,4.679A2.387,2.387,0,0,1,1095.88,36.419ZM1090.24,30a4.618,4.618,0,0,0-4.54,4.689,1.512,1.512,0,0,0,1.1.852,11.512,11.512,0,0,0,6.88,0,1.512,1.512,0,0,0,1.1-.852A4.624,4.624,0,0,0,1090.24,30Zm0-2.734a4.138,4.138,0,1,1,4-4.135A4.08,4.08,0,0,1,1090.24,27.27Zm0-6.331a2.2,2.2,0,1,0,2.12,2.2A2.162,2.162,0,0,0,1090.24,20.939Z"/>
  <path id="duration" class="cls-3" d="M922,37.008a9,9,0,1,1,9.011-9A9.016,9.016,0,0,1,922,37.008ZM922,21a7,7,0,1,0,7,7A7,7,0,0,0,922,21Zm0.575,7.8-1.918,1.918a0.97,0.97,0,0,1-1.371-1.371L921,27.628V24a1,1,0,0,1,2,0v4A0.982,0.982,0,0,1,922.575,28.8Z"/>
  <path id="rating" class="cls-4" d="M762.173,35.229a2.614,2.614,0,0,1-3.715,2.544c-0.744-.3-1.428-0.721-2.144-1.079-0.385-.193-0.769-0.39-1.146-0.6a0.315,0.315,0,0,0-.339,0c-0.954.5-1.913,0.993-2.869,1.488a3.036,3.036,0,0,1-2.3.306,2.541,2.541,0,0,1-1.809-2.159,6.2,6.2,0,0,1,.159-1.767q0.209-1.238.437-2.472a0.292,0.292,0,0,0-.122-0.293c-0.84-.809-1.691-1.608-2.514-2.434A2.666,2.666,0,0,1,745,26.74a2.581,2.581,0,0,1,2.037-2.37c0.751-.187,1.525-0.241,2.287-0.362,0.472-.075.948-0.136,1.422-0.2a0.357,0.357,0,0,0,.311-0.221c0.49-1,.982-2,1.493-2.988a2.772,2.772,0,0,1,1.913-1.531,2.652,2.652,0,0,1,2.857,1.329c0.416,0.695.736,1.439,1.106,2.158,0.164,0.319.333,0.636,0.476,0.964a0.474,0.474,0,0,0,.43.3q1.606,0.214,3.211.456a2.855,2.855,0,0,1,1.987,1.139,2.576,2.576,0,0,1-.356,3.363c-0.811.816-1.651,1.6-2.483,2.4a0.365,0.365,0,0,0-.125.376c0.205,1.146.394,2.294,0.586,3.442C762.166,35.076,762.167,35.153,762.173,35.229Zm-11.712.8a1.345,1.345,0,0,0,.634-0.213c1.141-.59,2.285-1.177,3.422-1.775a0.955,0.955,0,0,1,.966,0c0.931,0.493,1.868.976,2.806,1.458a7.937,7.937,0,0,0,.974.477,0.624,0.624,0,0,0,.918-0.612,1.156,1.156,0,0,0-.019-0.227c-0.226-1.32-.447-2.64-0.684-3.958a0.908,0.908,0,0,1,.286-0.887q1.383-1.318,2.755-2.649a2.885,2.885,0,0,0,.312-0.337,0.6,0.6,0,0,0-.309-1.014,1.707,1.707,0,0,0-.335-0.086c-1.292-.187-2.582-0.379-3.876-0.548a1.025,1.025,0,0,1-.868-0.616c-0.541-1.11-1.1-2.211-1.655-3.315a2.276,2.276,0,0,0-.3-0.487,0.6,0.6,0,0,0-.99,0,1.793,1.793,0,0,0-.241.387q-0.87,1.739-1.739,3.478a0.908,0.908,0,0,1-.725.536c-1.109.155-2.218,0.307-3.326,0.471a4.211,4.211,0,0,0-1.064.206,0.571,0.571,0,0,0-.324.856,1.611,1.611,0,0,0,.349.423q1.41,1.357,2.822,2.713a0.841,0.841,0,0,1,.282.783c-0.186,1.087-.385,2.173-0.567,3.261a3.376,3.376,0,0,0-.125,1.2A0.55,0.55,0,0,0,750.461,36.028Z"/>
  <path id="arrow-left" class="cls-5" d="M823.549,39.462c0.039,1.057-.5,1.441-1.331,1.1a4.477,4.477,0,0,1-.623-0.335q-9.033-5.483-18.063-10.969c-1.555-.944-1.56-1.955-0.014-2.894q8.425-5.117,16.851-10.233c0.593-.36,1.173-0.747,1.794-1.051a0.885,0.885,0,0,1,1.385.958,4.371,4.371,0,0,1-.057.47c-0.454,2.576-.887,5.155-1.372,7.725a17.262,17.262,0,0,0-.2,5.926c0.291,1.852.648,3.693,0.974,5.54C823.121,37,823.347,38.307,823.549,39.462Z"/>
  <path id="arrow-right.svg" class="cls-5" d="M693.451,39.462c-0.039,1.057.5,1.441,1.33,1.1a4.432,4.432,0,0,0,.624-0.335q9.033-5.483,18.063-10.969c1.554-.944,1.56-1.955.014-2.894q-8.425-5.117-16.851-10.233c-0.593-.36-1.173-0.747-1.794-1.051a0.885,0.885,0,0,0-1.385.958,4.637,4.637,0,0,0,.056.47c0.454,2.576.888,5.155,1.373,7.725a17.262,17.262,0,0,1,.2,5.926c-0.291,1.852-.648,3.693-0.974,5.54C693.879,37,693.653,38.307,693.451,39.462Z"/>
  <rect id="menu-separator" class="cls-6" x="866" y="22" width="2" height="12"/>
  <path id="demo" class="cls-1" d="M647.007,37.994H632.99a4,4,0,0,1-4-4V22.008a4,4,0,0,1,4-4h14.017a4,4,0,0,1,4,4V34A4,4,0,0,1,647.007,37.994ZM632.99,36h14.017a2,2,0,0,0,2-2V26H630.988V34A2,2,0,0,0,632.99,36ZM647.007,20.01H632.99a2,2,0,0,0-2,2v2h18.021v-2A2,2,0,0,0,647.007,20.01ZM638.29,28.3a1,1,0,0,1,1.415,1.413L638.411,31l1.294,1.292a1,1,0,0,1-1.415,1.413L637,32.413a2,2,0,0,1,0-2.826Zm5,0a1,1,0,0,1,1.416,0l1.294,1.291a2,2,0,0,1,0,2.826l-1.294,1.292a1,1,0,1,1-1.416-1.413L644.59,31l-1.3-1.292A1,1,0,0,1,643.295,28.3Z"/>
  <path id="arrow-more" class="cls-7" d="M588,24l4,4-4,4"/>
  <circle id="list-dot" class="cls-8" cx="533" cy="28" r="3"/>
  <path id="star-full" class="cls-9" d="M477,13l5.273,9.742L493,24.841l-7.466,8.119L486.887,44,477,39.275,467.112,44l1.356-11.038L461,24.841l10.725-2.1L477,13"/>
  <path id="star-empty" class="cls-10" d="M421,13l5.273,9.742L437,24.841l-7.466,8.119L430.887,44,421,39.275,411.112,44l1.356-11.039L405,24.841l10.725-2.1L421,13"/>
  <path id="star-half" class="cls-11" d="M373.532,32.96L374.887,44,365,39.275,355.112,44l1.356-11.039L349,24.841l10.725-2.1L365,13l5.273,9.742L381,24.841Zm-4.841-8.491L365,17.65V36.042l6.921,3.307-0.949-7.727,5.226-5.684Z"/>
  <path id="btn-menu" class="cls-12" d="M332,56H284a4,4,0,0,1-4-4V4a4,4,0,0,1,4-4h48a4,4,0,0,1,4,4V52A4,4,0,0,1,332,56Zm2-52a2,2,0,0,0-2-2H284a2,2,0,0,0-2,2V52a2,2,0,0,0,2,2h48a2,2,0,0,0,2-2V4ZM320.835,41H295.173a1.216,1.216,0,0,1-.82-0.3A0.9,0.9,0,0,1,294.007,40V37.992a0.9,0.9,0,0,1,.346-0.706,1.217,1.217,0,0,1,.82-0.3h25.662a1.219,1.219,0,0,1,.821.3,0.907,0.907,0,0,1,.346.706V40a0.906,0.906,0,0,1-.346.706A1.218,1.218,0,0,1,320.835,41Zm0-10H295.173a1.216,1.216,0,0,1-.82-0.3A0.9,0.9,0,0,1,294.007,30V27.992a0.9,0.9,0,0,1,.346-0.706,1.217,1.217,0,0,1,.82-0.3h25.662a1.219,1.219,0,0,1,.821.3,0.907,0.907,0,0,1,.346.706V30a0.906,0.906,0,0,1-.346.706A1.218,1.218,0,0,1,320.835,31Zm0-10H295.173a1.216,1.216,0,0,1-.82-0.3A0.9,0.9,0,0,1,294.007,20V17.992a0.9,0.9,0,0,1,.346-0.706,1.217,1.217,0,0,1,.82-0.3h25.662a1.219,1.219,0,0,1,.821.3,0.907,0.907,0,0,1,.346.706V20a0.906,0.906,0,0,1-.346.706A1.218,1.218,0,0,1,320.835,21Z"/>
  <path id="arrow-select" class="cls-13" d="M261,24H247l7,8Z"/>
  <path id="mail" class="cls-13" d="M187.762,22.4l9.584,5.209a2.72,2.72,0,0,0,2.317,0l9.584-5.209c0.624-.339,1.215-1.4.068-1.4H187.694C186.548,21,187.138,22.063,187.762,22.4Zm21.749,2.586L199.663,30.2a2.719,2.719,0,0,1-2.317,0L187.5,24.987c-0.5-.263-0.5.045-0.5,0.284v9.484A1.5,1.5,0,0,0,188.27,36h20.468a1.5,1.5,0,0,0,1.268-1.24V25.271C210.006,25.033,210.01,24.724,209.511,24.987Z"/>
  <path id="close" class="cls-14" d="M143.4,28.224l6.326,6.326a1.01,1.01,0,0,1,0,1.427l-0.714.714a1.009,1.009,0,0,1-1.427,0l-6.326-6.326-5.767,5.766a1,1,0,0,1-1.414,0l-0.707-.707a1,1,0,0,1,0-1.414l5.767-5.766-5.826-5.826a1.008,1.008,0,0,1,0-1.427l0.713-.714a1.009,1.009,0,0,1,1.427,0l5.826,5.826,6.235-6.235a1,1,0,0,1,1.414,0l0.708,0.707a1,1,0,0,1,0,1.414Z"/>
  <path id="check-list" class="cls-15" d="M97.4,16.812A70.874,70.874,0,0,0,80.9,31.083l-6.42-5.03-2.835,2.286L82.9,39.152c1.909-4.891,7.8-13.98,15.183-20.77Z"/>
  <path id="sign-in.svg" class="cls-1" d="M40.45,18.918L34,23V36l5-3a1.335,1.335,0,0,1,1.857.753,1.055,1.055,0,0,1-.392,1.4l-6.684,3.7a1.109,1.109,0,0,1-1.071,0A1.185,1.185,0,0,1,32,38V35H29a1.209,1.209,0,0,1-.707-0.4,0.908,0.908,0,0,1-.282-0.654L28,30a1,1,0,0,1,2,0v3h2V22a1.89,1.89,0,0,1,1-1l4-2H30v3a1,1,0,1,1-2,0l0.016-4.074A0.945,0.945,0,0,1,28.98,17H39.859a1.082,1.082,0,0,1,.985.513A1.006,1.006,0,0,1,40.45,18.918ZM26.943,26.065c0,0.008,0,.016,0,0.023s0,0.015,0,.022,0,0.019,0,.029l0,0.016c0,0.01,0,.02-0.005.03l0,0.014c0,0.01,0,.02-0.007.031l0,0.014-0.008.029,0,0.015-0.009.027-0.006.017-0.009.024-0.008.019-0.009.021-0.01.021-0.009.018-0.012.023-0.009.015-0.014.024L26.8,26.51l-0.015.024-0.01.014-0.016.023-0.012.015-0.016.02-0.017.02-0.012.014-0.032.034-3.117,3.105a0.927,0.927,0,0,1-1.314-1.309l1.532-1.526H16.929a0.925,0.925,0,1,1,0-1.85h6.844l-1.532-1.526a0.927,0.927,0,0,1,1.314-1.308l3.117,3.1L26.7,25.4l0.012,0.014,0.017,0.02,0.016,0.02,0.012,0.015,0.016,0.023,0.01,0.014L26.8,25.529l0.009,0.014,0.014,0.024,0.009,0.016,0.012,0.023,0.009,0.018,0.01,0.021,0.009,0.021,0.008,0.019,0.009,0.024L26.9,25.726,26.9,25.753l0,0.014L26.917,25.8l0,0.014c0,0.01,0,.02.007,0.031l0,0.014c0,0.01,0,.02.005,0.03l0,0.016c0,0.009,0,.019,0,0.029s0,0.014,0,.021,0,0.016,0,.023,0,0.026,0,.04,0,0,0,.006,0,0,0,.006S26.944,26.052,26.943,26.065Z"/>
  <path id="cart.svg" class="cls-1" d="M1047.16,29.288l-1.73,6.953A3.62,3.62,0,0,1,1041.91,39h-9.82a3.62,3.62,0,0,1-3.52-2.758l-1.73-6.953c-1.08-.433-1.84-0.871-1.84-3.289a3.059,3.059,0,0,1,3-3h3l2.14-5.334a1.055,1.055,0,1,1,1.96.779L1034,23h6l-1.1-4.555a1.056,1.056,0,0,1,.6-1.369,1.043,1.043,0,0,1,1.36.591L1043,23h3a3.059,3.059,0,0,1,3,3C1049,28.011,1048.24,28.856,1047.16,29.288Zm-16.55,6.445a1.525,1.525,0,0,0,1.48,1.157h9.82a1.525,1.525,0,0,0,1.48-1.157L1045,30h-16ZM1045.5,25h-17a1.5,1.5,0,0,0,0,3h17A1.5,1.5,0,0,0,1045.5,25Z"/>
  <path id="view-all.svg" class="cls-1" d="M987,37h-7c-3.682,0-4-3-4-3a2.7,2.7,0,0,1-3.009-2.869L973,23a3.09,3.09,0,0,1,3-3h6a1,1,0,1,1,0,2h-6a0.988,0.988,0,0,0-1,1v8a0.988,0.988,0,0,0,1,1h8a0.988,0.988,0,0,0,1-1V25a1,1,0,0,1,2,0l0,6.131a2.887,2.887,0,0,1-2.882,2.884h-6.148A0.955,0.955,0,0,0,979,35h8a0.978,0.978,0,0,0,1-1V28a1,1,0,0,1,2,0v6A3.057,3.057,0,0,1,987,37Zm-3.891-7.014h-6.188a0.989,0.989,0,0,1,0-1.972h6.188A0.989,0.989,0,0,1,983.109,29.986Zm0-3h-6.188a1.008,1.008,0,0,1,0-2h6.188A1.008,1.008,0,0,1,983.109,26.99Z"/>
  <path id="enrolled.svg" class="cls-2" d="M1104.23,35.672a3.77,3.77,0,0,1-1.29.776,9.9,9.9,0,0,1-3.39.534,17.251,17.251,0,0,1-1.74-.143,0.237,0.237,0,0,1-.18-0.346,8.215,8.215,0,0,0,.39-1.017,0.228,0.228,0,0,1,.25-0.169,10.563,10.563,0,0,0,1.28.078,8.49,8.49,0,0,0,2.85-.436,1.262,1.262,0,0,0,.91-0.705,3.83,3.83,0,0,0-3.76-3.884,3.62,3.62,0,0,0-2.01.617,0.231,0.231,0,0,1-.34-0.087,8.243,8.243,0,0,0-.55-0.909,0.249,0.249,0,0,1,.06-0.353,5.149,5.149,0,0,1,6.59.742,5.51,5.51,0,0,1,1.56,3.876A1.985,1.985,0,0,1,1104.23,35.672Zm-4.68-7.577a3.427,3.427,0,1,1,3.32-3.425A3.378,3.378,0,0,1,1099.55,28.094Zm0-5.244a1.82,1.82,0,1,0,1.76,1.819A1.792,1.792,0,0,0,1099.55,22.851Zm-3.67,13.568a4.422,4.422,0,0,1-1.56.936,13.256,13.256,0,0,1-8.17,0,4.515,4.515,0,0,1-1.56-.936,2.376,2.376,0,0,1-.76-1.725,6.688,6.688,0,0,1,1.88-4.679,6.262,6.262,0,0,1,9.06,0,6.688,6.688,0,0,1,1.88,4.679A2.387,2.387,0,0,1,1095.88,36.419ZM1090.24,30a4.618,4.618,0,0,0-4.54,4.689,1.512,1.512,0,0,0,1.1.852,11.512,11.512,0,0,0,6.88,0,1.512,1.512,0,0,0,1.1-.852A4.624,4.624,0,0,0,1090.24,30Zm0-2.734a4.138,4.138,0,1,1,4-4.135A4.08,4.08,0,0,1,1090.24,27.27Zm0-6.331a2.2,2.2,0,1,0,2.12,2.2A2.162,2.162,0,0,0,1090.24,20.939Z"/>
  <path id="duration.svg" class="cls-3" d="M922,37.008a9,9,0,1,1,9.011-9A9.016,9.016,0,0,1,922,37.008ZM922,21a7,7,0,1,0,7,7A7,7,0,0,0,922,21Zm0.575,7.8-1.918,1.918a0.97,0.97,0,0,1-1.371-1.371L921,27.628V24a1,1,0,0,1,2,0v4A0.982,0.982,0,0,1,922.575,28.8Z"/>
  <path id="rating.svg" class="cls-4" d="M762.173,35.229a2.614,2.614,0,0,1-3.715,2.544c-0.744-.3-1.428-0.721-2.144-1.079-0.385-.193-0.769-0.39-1.146-0.6a0.315,0.315,0,0,0-.339,0c-0.954.5-1.913,0.993-2.869,1.488a3.036,3.036,0,0,1-2.3.306,2.541,2.541,0,0,1-1.809-2.159,6.2,6.2,0,0,1,.159-1.767q0.209-1.238.437-2.472a0.292,0.292,0,0,0-.122-0.293c-0.84-.809-1.691-1.608-2.514-2.434A2.666,2.666,0,0,1,745,26.74a2.581,2.581,0,0,1,2.037-2.37c0.751-.187,1.525-0.241,2.287-0.362,0.472-.075.948-0.136,1.422-0.2a0.357,0.357,0,0,0,.311-0.221c0.49-1,.982-2,1.493-2.988a2.772,2.772,0,0,1,1.913-1.531,2.652,2.652,0,0,1,2.857,1.329c0.416,0.695.736,1.439,1.106,2.158,0.164,0.319.333,0.636,0.476,0.964a0.474,0.474,0,0,0,.43.3q1.606,0.214,3.211.456a2.855,2.855,0,0,1,1.987,1.139,2.576,2.576,0,0,1-.356,3.363c-0.811.816-1.651,1.6-2.483,2.4a0.365,0.365,0,0,0-.125.376c0.205,1.146.394,2.294,0.586,3.442C762.166,35.076,762.167,35.153,762.173,35.229Zm-11.712.8a1.345,1.345,0,0,0,.634-0.213c1.141-.59,2.285-1.177,3.422-1.775a0.955,0.955,0,0,1,.966,0c0.931,0.493,1.868.976,2.806,1.458a7.937,7.937,0,0,0,.974.477,0.624,0.624,0,0,0,.918-0.612,1.156,1.156,0,0,0-.019-0.227c-0.226-1.32-.447-2.64-0.684-3.958a0.908,0.908,0,0,1,.286-0.887q1.383-1.318,2.755-2.649a2.885,2.885,0,0,0,.312-0.337,0.6,0.6,0,0,0-.309-1.014,1.707,1.707,0,0,0-.335-0.086c-1.292-.187-2.582-0.379-3.876-0.548a1.025,1.025,0,0,1-.868-0.616c-0.541-1.11-1.1-2.211-1.655-3.315a2.276,2.276,0,0,0-.3-0.487,0.6,0.6,0,0,0-.99,0,1.793,1.793,0,0,0-.241.387q-0.87,1.739-1.739,3.478a0.908,0.908,0,0,1-.725.536c-1.109.155-2.218,0.307-3.326,0.471a4.211,4.211,0,0,0-1.064.206,0.571,0.571,0,0,0-.324.856,1.611,1.611,0,0,0,.349.423q1.41,1.357,2.822,2.713a0.841,0.841,0,0,1,.282.783c-0.186,1.087-.385,2.173-0.567,3.261a3.376,3.376,0,0,0-.125,1.2A0.55,0.55,0,0,0,750.461,36.028Z"/>
  <path id="arrow-left.svg" class="cls-5" d="M823.549,39.462c0.039,1.057-.5,1.441-1.331,1.1a4.477,4.477,0,0,1-.623-0.335q-9.033-5.483-18.063-10.969c-1.555-.944-1.56-1.955-0.014-2.894q8.425-5.117,16.851-10.233c0.593-.36,1.173-0.747,1.794-1.051a0.885,0.885,0,0,1,1.385.958,4.371,4.371,0,0,1-.057.47c-0.454,2.576-.887,5.155-1.372,7.725a17.262,17.262,0,0,0-.2,5.926c0.291,1.852.648,3.693,0.974,5.54C823.121,37,823.347,38.307,823.549,39.462Z"/>
  <path id="arrow-right.svg.svg" class="cls-5" d="M693.451,39.462c-0.039,1.057.5,1.441,1.33,1.1a4.432,4.432,0,0,0,.624-0.335q9.033-5.483,18.063-10.969c1.554-.944,1.56-1.955.014-2.894q-8.425-5.117-16.851-10.233c-0.593-.36-1.173-0.747-1.794-1.051a0.885,0.885,0,0,0-1.385.958,4.637,4.637,0,0,0,.056.47c0.454,2.576.888,5.155,1.373,7.725a17.262,17.262,0,0,1,.2,5.926c-0.291,1.852-.648,3.693-0.974,5.54C693.879,37,693.653,38.307,693.451,39.462Z"/>
  <rect id="menu-separator.svg" class="cls-6" x="866" y="22" width="2" height="12"/>
  <path id="demo.svg" class="cls-1" d="M647.007,37.994H632.99a4,4,0,0,1-4-4V22.008a4,4,0,0,1,4-4h14.017a4,4,0,0,1,4,4V34A4,4,0,0,1,647.007,37.994ZM632.99,36h14.017a2,2,0,0,0,2-2V26H630.988V34A2,2,0,0,0,632.99,36ZM647.007,20.01H632.99a2,2,0,0,0-2,2v2h18.021v-2A2,2,0,0,0,647.007,20.01ZM638.29,28.3a1,1,0,0,1,1.415,1.413L638.411,31l1.294,1.292a1,1,0,0,1-1.415,1.413L637,32.413a2,2,0,0,1,0-2.826Zm5,0a1,1,0,0,1,1.416,0l1.294,1.291a2,2,0,0,1,0,2.826l-1.294,1.292a1,1,0,1,1-1.416-1.413L644.59,31l-1.3-1.292A1,1,0,0,1,643.295,28.3Z"/>
  <path id="arrow-more.svg" class="cls-7" d="M588,24l4,4-4,4"/>
  <circle id="list-dot.svg" class="cls-8" cx="533" cy="28" r="3"/>
  <path id="star-full.svg" class="cls-9" d="M477,13l5.273,9.742L493,24.841l-7.466,8.119L486.887,44,477,39.275,467.112,44l1.356-11.038L461,24.841l10.725-2.1L477,13"/>
  <path id="star-empty.svg" class="cls-10" d="M421,13l5.273,9.742L437,24.841l-7.466,8.119L430.887,44,421,39.275,411.112,44l1.356-11.039L405,24.841l10.725-2.1L421,13"/>
  <path id="star-half.svg" class="cls-11" d="M373.532,32.96L374.887,44,365,39.275,355.112,44l1.356-11.039L349,24.841l10.725-2.1L365,13l5.273,9.742L381,24.841Zm-4.841-8.491L365,17.65V36.042l6.921,3.307-0.949-7.727,5.226-5.684Z"/>
  <path id="btn-menu.svg" class="cls-12" d="M332,56H284a4,4,0,0,1-4-4V4a4,4,0,0,1,4-4h48a4,4,0,0,1,4,4V52A4,4,0,0,1,332,56Zm2-52a2,2,0,0,0-2-2H284a2,2,0,0,0-2,2V52a2,2,0,0,0,2,2h48a2,2,0,0,0,2-2V4ZM320.835,41H295.173a1.216,1.216,0,0,1-.82-0.3A0.9,0.9,0,0,1,294.007,40V37.992a0.9,0.9,0,0,1,.346-0.706,1.217,1.217,0,0,1,.82-0.3h25.662a1.219,1.219,0,0,1,.821.3,0.907,0.907,0,0,1,.346.706V40a0.906,0.906,0,0,1-.346.706A1.218,1.218,0,0,1,320.835,41Zm0-10H295.173a1.216,1.216,0,0,1-.82-0.3A0.9,0.9,0,0,1,294.007,30V27.992a0.9,0.9,0,0,1,.346-0.706,1.217,1.217,0,0,1,.82-0.3h25.662a1.219,1.219,0,0,1,.821.3,0.907,0.907,0,0,1,.346.706V30a0.906,0.906,0,0,1-.346.706A1.218,1.218,0,0,1,320.835,31Zm0-10H295.173a1.216,1.216,0,0,1-.82-0.3A0.9,0.9,0,0,1,294.007,20V17.992a0.9,0.9,0,0,1,.346-0.706,1.217,1.217,0,0,1,.82-0.3h25.662a1.219,1.219,0,0,1,.821.3,0.907,0.907,0,0,1,.346.706V20a0.906,0.906,0,0,1-.346.706A1.218,1.218,0,0,1,320.835,21Z"/>
  <path id="arrow-select.svg" class="cls-13" d="M261,24H247l7,8Z"/>
  <path id="mail.svg" class="cls-13" d="M187.762,22.4l9.584,5.209a2.72,2.72,0,0,0,2.317,0l9.584-5.209c0.624-.339,1.215-1.4.068-1.4H187.694C186.548,21,187.138,22.063,187.762,22.4Zm21.749,2.586L199.663,30.2a2.719,2.719,0,0,1-2.317,0L187.5,24.987c-0.5-.263-0.5.045-0.5,0.284v9.484A1.5,1.5,0,0,0,188.27,36h20.468a1.5,1.5,0,0,0,1.268-1.24V25.271C210.006,25.033,210.01,24.724,209.511,24.987Z"/>
  <path id="close.svg" class="cls-14" d="M143.4,28.224l6.326,6.326a1.01,1.01,0,0,1,0,1.427l-0.714.714a1.009,1.009,0,0,1-1.427,0l-6.326-6.326-5.767,5.766a1,1,0,0,1-1.414,0l-0.707-.707a1,1,0,0,1,0-1.414l5.767-5.766-5.826-5.826a1.008,1.008,0,0,1,0-1.427l0.713-.714a1.009,1.009,0,0,1,1.427,0l5.826,5.826,6.235-6.235a1,1,0,0,1,1.414,0l0.708,0.707a1,1,0,0,1,0,1.414Z"/>
  <path id="check-list.svg" class="cls-15" d="M97.4,16.812A70.874,70.874,0,0,0,80.9,31.083l-6.42-5.03-2.835,2.286L82.9,39.152c1.909-4.891,7.8-13.98,15.183-20.77Z"/>
</svg>
