<svg xmlns="http://www.w3.org/2000/svg" xmlns:xlink="http://www.w3.org/1999/xlink" width="56" height="56" viewBox="0 0 56 56">
  <defs>
    <style>
      .cls-1 {
        fill-rule: evenodd;
        fill: url(#linear-gradient);
      }
    </style>
    <linearGradient id="linear-gradient" x1="280" y1="56" x2="336" gradientUnits="userSpaceOnUse">
      <stop offset="0" stop-color="#ed801c"/>
      <stop offset="1" stop-color="#f6a821"/>
    </linearGradient>
  </defs>
  <path id="btn-menu.svg" class="cls-1" d="M332,56H284a4,4,0,0,1-4-4V4a4,4,0,0,1,4-4h48a4,4,0,0,1,4,4V52A4,4,0,0,1,332,56Zm2-52a2,2,0,0,0-2-2H284a2,2,0,0,0-2,2V52a2,2,0,0,0,2,2h48a2,2,0,0,0,2-2V4ZM320.835,41H295.173a1.216,1.216,0,0,1-.82-0.3A0.9,0.9,0,0,1,294.007,40V37.992a0.9,0.9,0,0,1,.346-0.706,1.217,1.217,0,0,1,.82-0.3h25.662a1.219,1.219,0,0,1,.821.3,0.907,0.907,0,0,1,.346.706V40a0.906,0.906,0,0,1-.346.706A1.218,1.218,0,0,1,320.835,41Zm0-10H295.173a1.216,1.216,0,0,1-.82-0.3A0.9,0.9,0,0,1,294.007,30V27.992a0.9,0.9,0,0,1,.346-0.706,1.217,1.217,0,0,1,.82-0.3h25.662a1.219,1.219,0,0,1,.821.3,0.907,0.907,0,0,1,.346.706V30a0.906,0.906,0,0,1-.346.706A1.218,1.218,0,0,1,320.835,31Zm0-10H295.173a1.216,1.216,0,0,1-.82-0.3A0.9,0.9,0,0,1,294.007,20V17.992a0.9,0.9,0,0,1,.346-0.706,1.217,1.217,0,0,1,.82-0.3h25.662a1.219,1.219,0,0,1,.821.3,0.907,0.907,0,0,1,.346.706V20a0.906,0.906,0,0,1-.346.706A1.218,1.218,0,0,1,320.835,21Z" transform="translate(-280)"/>
</svg>
